<svg width="64" height="64" viewBox="0 0 64 64" fill="none" xmlns="http://www.w3.org/2000/svg">
<path d="M23 52C23.2652 52 23.5196 51.8946 23.7071 51.7071C23.8946 51.5196 24 51.2652 24 51V46C24 45.7348 23.8946 45.4804 23.7071 45.2929C23.5196 45.1054 23.2652 45 23 45C22.7348 45 22.4804 45.1054 22.2929 45.2929C22.1054 45.4804 22 45.7348 22 46V51C22 51.2652 22.1054 51.5196 22.2929 51.7071C22.4804 51.8946 22.7348 52 23 52ZM23 42C23.2652 42 23.5196 41.8946 23.7071 41.7071C23.8946 41.5196 24 41.2652 24 41V36C24 35.7348 23.8946 35.4804 23.7071 35.2929C23.5196 35.1054 23.2652 35 23 35C22.7348 35 22.4804 35.1054 22.2929 35.2929C22.1054 35.4804 22 35.7348 22 36V41C22 41.2652 22.1054 41.5196 22.2929 41.7071C22.4804 41.8946 22.7348 42 23 42Z" fill="black"/>
<path d="M6 60.0001H58C59.0609 60.0001 60.0783 59.5787 60.8284 58.8286C61.5786 58.0784 62 57.061 62 56.0001V51.0001C62 50.7349 61.8946 50.4806 61.7071 50.293C61.5196 50.1055 61.2652 50.0001 61 50.0001C59.2761 50.0001 57.6228 49.3153 56.4038 48.0963C55.1848 46.8773 54.5 45.224 54.5 43.5001C54.5 41.7762 55.1848 40.1229 56.4038 38.9039C57.6228 37.6849 59.2761 37.0001 61 37.0001C61.2652 37.0001 61.5196 36.8948 61.7071 36.7072C61.8946 36.5197 62 36.2653 62 36.0001V30.0001C61.9987 29.3495 61.784 28.7172 61.389 28.2001C61.7609 27.6368 61.9684 26.9809 61.9884 26.3062C62.0083 25.6315 61.8399 24.9645 61.502 24.3801L59.28 20.5371C59.2144 20.4233 59.1271 20.3236 59.0229 20.2435C58.9188 20.1635 58.7999 20.1047 58.673 20.0707C58.5462 20.0366 58.4139 20.0278 58.2836 20.0449C58.1534 20.062 58.0278 20.1045 57.914 20.1701C56.6126 20.9216 55.0659 21.1253 53.6143 20.7365C52.1627 20.3476 50.925 19.398 50.1735 18.0966C49.422 16.7952 49.2183 15.2486 49.6071 13.7969C49.996 12.3453 50.9456 11.1076 52.247 10.3561C52.4755 10.2224 52.642 10.004 52.7105 9.74829C52.779 9.49258 52.744 9.22017 52.613 8.99013L49.946 4.37213C49.5754 3.73671 48.9689 3.2733 48.2584 3.08266C47.5479 2.89203 46.7909 2.98959 46.152 3.35413L5.2 27.0001H5C4.20435 27.0001 3.44129 27.3162 2.87868 27.8788C2.31607 28.4414 2 29.2045 2 30.0001V36.0001C2 36.2653 2.10536 36.5197 2.29289 36.7072C2.48043 36.8948 2.73478 37.0001 3 37.0001C4.72391 37.0001 6.37721 37.6849 7.59619 38.9039C8.81518 40.1229 9.5 41.7762 9.5 43.5001C9.5 45.224 8.81518 46.8773 7.59619 48.0963C6.37721 49.3153 4.72391 50.0001 3 50.0001C2.73478 50.0001 2.48043 50.1055 2.29289 50.293C2.10536 50.4806 2 50.7349 2 51.0001V56.0001C2 57.061 2.42143 58.0784 3.17157 58.8286C3.92172 59.5787 4.93913 60.0001 6 60.0001ZM47.152 5.08613C47.3308 4.98403 47.5428 4.95669 47.7417 5.01006C47.9405 5.06344 48.1103 5.19321 48.214 5.37113L50.414 9.17913C48.939 10.3117 47.9259 11.9418 47.5633 13.7658C47.2006 15.5897 47.5132 17.4833 48.4428 19.094C49.3724 20.7047 50.8557 21.9226 52.6164 22.5211C54.3772 23.1195 56.2954 23.0577 58.014 22.3471L59.768 25.3851C59.9189 25.6472 59.9945 25.9458 59.9864 26.2481C59.9782 26.5504 59.8868 26.8446 59.722 27.0981C59.4862 27.0361 59.2438 27.0032 59 27.0001H9.2L47.152 5.08613ZM4 51.9411C6.06677 51.6963 7.97191 50.7018 9.35429 49.146C10.7367 47.5902 11.5002 45.5813 11.5002 43.5001C11.5002 41.4189 10.7367 39.41 9.35429 37.8542C7.97191 36.2985 6.06677 35.3039 4 35.0591V30.0001C4 29.7349 4.10536 29.4806 4.29289 29.293C4.48043 29.1055 4.73478 29.0001 5 29.0001H22V31.0001C22 31.2653 22.1054 31.5197 22.2929 31.7072C22.4804 31.8948 22.7348 32.0001 23 32.0001C23.2652 32.0001 23.5196 31.8948 23.7071 31.7072C23.8946 31.5197 24 31.2653 24 31.0001V29.0001H59C59.2652 29.0001 59.5196 29.1055 59.7071 29.293C59.8946 29.4806 60 29.7349 60 30.0001V35.0591C57.9332 35.3039 56.0281 36.2985 54.6457 37.8542C53.2633 39.41 52.4998 41.4189 52.4998 43.5001C52.4998 45.5813 53.2633 47.5902 54.6457 49.146C56.0281 50.7018 57.9332 51.6963 60 51.9411V56.0001C60 56.5306 59.7893 57.0393 59.4142 57.4143C59.0391 57.7894 58.5304 58.0001 58 58.0001H24V56.0001C24 55.7349 23.8946 55.4806 23.7071 55.293C23.5196 55.1055 23.2652 55.0001 23 55.0001C22.7348 55.0001 22.4804 55.1055 22.2929 55.293C22.1054 55.4806 22 55.7349 22 56.0001V58.0001H6C5.46957 58.0001 4.96086 57.7894 4.58579 57.4143C4.21071 57.0393 4 56.5306 4 56.0001V51.9411Z" fill="black"/>
<path d="M34 42C34.7911 42 35.5645 41.7654 36.2223 41.3259C36.8801 40.8864 37.3928 40.2616 37.6955 39.5307C37.9983 38.7998 38.0775 37.9956 37.9231 37.2196C37.7688 36.4437 37.3878 35.731 36.8284 35.1716C36.269 34.6122 35.5563 34.2312 34.7804 34.0769C34.0044 33.9225 33.2002 34.0017 32.4693 34.3045C31.7384 34.6072 31.1136 35.1199 30.6741 35.7777C30.2346 36.4355 30 37.2089 30 38C30 39.0609 30.4214 40.0783 31.1716 40.8284C31.9217 41.5786 32.9391 42 34 42ZM34 36C34.3956 36 34.7822 36.1173 35.1111 36.3371C35.44 36.5568 35.6964 36.8692 35.8478 37.2346C35.9991 37.6001 36.0387 38.0022 35.9616 38.3902C35.8844 38.7781 35.6939 39.1345 35.4142 39.4142C35.1345 39.6939 34.7781 39.8844 34.3902 39.9616C34.0022 40.0387 33.6001 39.9991 33.2346 39.8478C32.8692 39.6964 32.5568 39.44 32.3371 39.1111C32.1173 38.7822 32 38.3956 32 38C32 37.4696 32.2107 36.9609 32.5858 36.5858C32.9609 36.2107 33.4696 36 34 36ZM46 46C45.2089 46 44.4355 46.2346 43.7777 46.6741C43.1199 47.1136 42.6072 47.7384 42.3045 48.4693C42.0017 49.2002 41.9225 50.0044 42.0769 50.7804C42.2312 51.5563 42.6122 52.269 43.1716 52.8284C43.731 53.3878 44.4437 53.7688 45.2196 53.9231C45.9956 54.0775 46.7998 53.9983 47.5307 53.6955C48.2616 53.3928 48.8864 52.8801 49.3259 52.2223C49.7654 51.5645 50 50.7911 50 50C50 48.9391 49.5786 47.9217 48.8284 47.1716C48.0783 46.4214 47.0609 46 46 46ZM46 52C45.6044 52 45.2178 51.8827 44.8889 51.6629C44.56 51.4432 44.3036 51.1308 44.1522 50.7654C44.0009 50.3999 43.9613 49.9978 44.0384 49.6098C44.1156 49.2219 44.3061 48.8655 44.5858 48.5858C44.8655 48.3061 45.2219 48.1156 45.6098 48.0384C45.9978 47.9613 46.3999 48.0009 46.7654 48.1522C47.1308 48.3036 47.4432 48.56 47.6629 48.8889C47.8827 49.2178 48 49.6044 48 50C48 50.5304 47.7893 51.0391 47.4142 51.4142C47.0391 51.7893 46.5304 52 46 52ZM30.882 50C30.8812 50.6165 31.0637 51.2193 31.4063 51.7319C31.7488 52.2445 32.236 52.6437 32.8059 52.8788C33.3758 53.1139 34.0027 53.1743 34.6071 53.0524C35.2114 52.9305 35.7658 52.6317 36.2 52.194L48.121 40.122C48.6774 39.5561 48.9892 38.7942 48.9892 38.0005C48.9892 37.2068 48.6774 36.4449 48.121 35.879C47.5481 35.3379 46.79 35.0365 46.002 35.0365C45.214 35.0365 44.4559 35.3379 43.883 35.879L31.806 47.8C31.514 48.0873 31.282 48.4297 31.1234 48.8073C30.9648 49.185 30.8827 49.5904 30.882 50ZM33.211 49.22L45.294 37.292C45.3854 37.1921 45.4962 37.1117 45.6196 37.0559C45.743 37.0001 45.8765 36.9699 46.0119 36.9672C46.1473 36.9645 46.2819 36.9894 46.4074 37.0402C46.5329 37.0911 46.6468 37.167 46.7422 37.2632C46.8375 37.3594 46.9123 37.474 46.962 37.6C47.0117 37.726 47.0353 37.8607 47.0314 37.9961C47.0274 38.1315 46.996 38.2647 46.9391 38.3876C46.8821 38.5105 46.8008 38.6205 46.7 38.711L34.78 50.788C34.677 50.891 34.5548 50.9728 34.4203 51.0285C34.2857 51.0843 34.1415 51.1131 33.9959 51.1131C33.8502 51.1131 33.706 51.0845 33.5714 51.0288C33.4368 50.9731 33.3145 50.8915 33.2115 50.7885C33.1085 50.6855 33.0267 50.5633 32.971 50.4288C32.9152 50.2942 32.8864 50.15 32.8864 50.0044C32.8864 49.8587 32.915 49.7145 32.9707 49.5799C33.0264 49.4453 33.108 49.323 33.211 49.22Z" fill="black"/>
</svg>
