<svg width="18" height="18" viewBox="0 0 18 18" fill="none" xmlns="http://www.w3.org/2000/svg">
<g clip-path="url(#clip0_92_3520)">
<path d="M17.3205 7.43541L9.97844 7.43506C9.65423 7.43506 9.39143 7.69782 9.39143 8.02203V10.3675C9.39143 10.6916 9.65423 10.9544 9.9784 10.9544H14.113C13.6602 12.1294 12.8152 13.1134 11.7371 13.7386L13.5001 16.7905C16.3282 15.1549 18.0001 12.2851 18.0001 9.07264C18.0001 8.61522 17.9664 8.28823 17.899 7.92004C17.8477 7.6403 17.6049 7.43541 17.3205 7.43541Z" fill="#167EE6"/>
<path d="M8.99991 14.4783C6.97653 14.4783 5.21014 13.3727 4.26144 11.7368L1.20967 13.4958C2.7627 16.1875 5.67202 18 8.99991 18C10.6325 18 12.1729 17.5604 13.4999 16.7944V16.7902L11.7369 13.7383C10.9305 14.2061 9.99733 14.4783 8.99991 14.4783Z" fill="#12B347"/>
<path d="M13.5 16.7944V16.7902L11.737 13.7383C10.9306 14.206 9.99749 14.4782 9 14.4782V18C10.6326 18 12.1731 17.5604 13.5 16.7944Z" fill="#0F993E"/>
<path d="M3.52174 8.99972C3.52174 8.00237 3.79392 7.06929 4.26154 6.26291L1.20976 4.50391C0.439523 5.82673 0 7.36299 0 8.99972C0 10.6365 0.439523 12.1727 1.20976 13.4955L4.26154 11.7365C3.79392 10.9301 3.52174 9.99707 3.52174 8.99972Z" fill="#FFD500"/>
<path d="M8.99991 3.52174C10.3194 3.52174 11.5313 3.99059 12.478 4.77046C12.7115 4.96283 13.051 4.94895 13.2649 4.73502L14.9267 3.07318C15.1694 2.83047 15.1521 2.43316 14.8929 2.20823C13.3068 0.832254 11.2431 0 8.99991 0C5.67202 0 2.7627 1.81255 1.20967 4.50418L4.26144 6.26319C5.21014 4.62727 6.97653 3.52174 8.99991 3.52174Z" fill="#FF4B26"/>
<path d="M12.4781 4.77046C12.7116 4.96283 13.0511 4.94895 13.265 4.73502L14.9268 3.07318C15.1695 2.83046 15.1522 2.43316 14.893 2.20823C13.3069 0.832219 11.2432 0 9 0V3.52174C10.3194 3.52174 11.5314 3.99059 12.4781 4.77046Z" fill="#D93F21"/>
</g>
<defs>
<clipPath id="clip0_92_3520">
<rect width="18" height="18" fill="white"/>
</clipPath>
</defs>
</svg>
