<svg width="354" height="100" viewBox="0 0 354 100" fill="none" xmlns="http://www.w3.org/2000/svg">
<path fill-rule="evenodd" clip-rule="evenodd" d="M86.9176 37.9182L62.0819 33.729V35.4531C63.0218 35.6038 64.0523 35.886 65.4392 36.335C67.2863 36.9329 68.6804 37.729 70.4462 39.4019L67.751 43.1194C65.9852 41.9112 63.915 41.0142 62.5875 40.5837C62.4351 40.5342 62.2652 40.4913 62.0819 40.4547V48.8403L64.3103 49.532C67.751 50.7435 69.3879 51.8588 70.8179 54.5506C71.7066 56.2234 71.7473 59.9409 70.4462 62.4502C69.1451 64.1231 67.5685 65.7301 64.3103 66.5993C63.5755 66.7954 62.8298 66.9412 62.0819 67.0389V70.0877C67.4013 69.1808 73.4605 68.0199 79.9122 66.5627C83.5079 65.7505 87.2229 64.5446 89.2895 61.5486L76.2125 60.5532L76.2151 57.8827L90.7131 58.9704C91.2738 57.7728 91.7589 56.4991 92.1711 55.2175L75.4898 53.112L74.3232 50.3194L92.8968 52.6731C93.3806 50.7436 93.6978 48.9019 93.8577 47.3919L72.5836 44.9814L74.3783 42.9493L93.9515 45.057C93.3599 39.725 89.6861 38.3137 86.9176 37.9182ZM25.2076 27.5093L58.922 33.1961V35.3892C58.2339 35.4524 57.4605 35.554 56.5306 35.6846C49.808 37.4782 47.4908 42.6547 49.3495 47.8925C50.2281 50.3684 52.6218 52.1269 56.5306 52.9732L58.7922 53.5283L58.922 53.5636V61.9459C58.3848 61.8822 57.929 61.796 57.6209 61.7101C53.8588 60.9576 52.5033 59.9044 51.4571 59.0916C51.3403 59.0008 51.2273 58.913 51.1153 58.829L47.7696 62.2643C49.4421 64.7291 53.9655 66.9438 58.922 67.1708V70.6113C51.824 71.7534 46.3578 72.4016 43.5161 72.6766C31.992 73.7918 28.6463 88.0111 38.4976 89.4052L39.3907 89.3292C40.2036 85.2391 43.8124 82.1561 48.1413 82.1561C51.9498 82.1561 55.201 84.5424 56.4812 87.9015C58.9941 87.6837 61.4708 87.4605 63.8824 87.2277C65.3198 84.2278 68.3845 82.1561 71.9331 82.1561C74.731 82.1561 77.2282 83.4441 78.864 85.4595C81.1764 85.1107 83.3102 84.7357 85.219 84.3276C86.4994 84.0539 87.7699 85.0901 87.091 86.2097C86.132 87.7913 84.073 88.8666 80.7501 89.7059C80.8192 90.1532 80.855 90.6114 80.855 91.078C80.855 96.0055 76.8605 100 71.9331 100C67.3758 100 63.6165 96.5831 63.0775 92.1714C61.6223 92.3176 60.0959 92.468 58.4965 92.6257L56.9005 92.7831C56.1048 96.8949 52.4856 100 48.1413 100C44.3059 100 41.0358 97.5799 39.7747 94.1835C39.365 94.1941 38.9402 94.2113 38.4976 94.2379C30.7838 94.2379 21.5831 81.9703 35.2448 71.6543L32.9248 64.9718L41.3006 65.1712L38.7545 62.3606L31.9496 62.1629L30.0639 56.7314L43.5669 57.6408L45.2601 54.9257L29.0612 53.8433L27.0281 47.9873L42.7507 49.5353L42.3395 46.8142L26.0676 45.2204L24.1264 39.6291L42.5099 41.5426L43.4014 38.9405L23.1632 36.8547L15.821 15.7063C14.7057 12.5465 13.7206 10.316 6.43436 8.0855C4.14192 7.55886 -0.350025 5.20446 0.021722 0L13.5905 5.39033C15.1394 6.16481 18.5719 8.84758 19.9102 13.3829L25.2076 27.5093ZM58.922 40.3282C58.2874 40.3765 57.6988 40.464 57.2492 40.5837C54.0893 41.4244 53.9069 44.3275 54.7399 45.9075C55.345 47.0552 57.1243 47.4889 58.7922 47.8374L58.922 47.8677V40.3282ZM62.0819 54.5059V61.955C64.3993 61.5756 66.5296 59.0367 65.4392 56.9669C64.909 55.9613 63.8721 55.2196 62.0819 54.5059Z" fill="#333333"/>
<path fill-rule="evenodd" clip-rule="evenodd" d="M86.9176 37.9183L62.0817 33.7291V35.4531C63.0216 35.6039 64.0521 35.8861 65.4391 36.335C67.2862 36.9329 68.6802 37.7291 70.446 39.4019L67.7509 43.1194C65.9851 41.9112 63.9149 41.0143 62.5874 40.5837C62.4349 40.5343 62.265 40.4914 62.0817 40.4547V48.8403L64.3101 49.532C67.7509 50.7436 69.3878 51.8588 70.8178 54.5506C71.7065 56.2235 71.7472 59.941 70.446 62.4503C69.1449 64.1231 67.5684 65.7301 64.3101 66.5993C63.5754 66.7954 62.8296 66.9413 62.0817 67.039V70.0878C68.6403 68.9697 76.3237 67.4653 84.4804 65.4955C85.1724 65.3284 85.8573 65.0989 86.4367 64.6855C87.5255 63.9086 88.4886 62.8009 89.3309 61.4953L76.9559 60.5533L76.9585 57.8829L90.7382 58.9167C91.3013 57.7066 91.7877 56.4202 92.2 55.1274L76.2333 53.112L75.0667 50.3194L92.9195 52.5818C93.3993 50.6501 93.7118 48.8104 93.8663 47.3088L73.3271 44.9815L75.1217 42.9494L93.9422 44.9761C93.3225 39.7108 89.672 38.3118 86.9176 37.9183ZM62.0817 54.506V61.9551C64.3991 61.5757 66.5294 59.0368 65.4391 56.967C64.9089 55.9614 63.8719 55.2197 62.0817 54.506Z" fill="#0D8A21"/>
<path d="M326.514 66.9944V37.5H340.924C344.632 37.5 347.413 38.2023 349.267 39.6067C351.149 41.0112 352.09 42.8652 352.09 45.1685C352.09 46.7135 351.711 48.0618 350.952 49.2135C350.194 50.3371 349.154 51.2079 347.834 51.8258C346.514 52.4438 344.997 52.7528 343.284 52.7528L344.084 51.0253C345.938 51.0253 347.581 51.3343 349.014 51.9523C350.446 52.5421 351.556 53.427 352.343 54.6067C353.157 55.7865 353.564 57.2332 353.564 58.9466C353.564 61.4747 352.567 63.4551 350.573 64.8876C348.579 66.2921 345.643 66.9944 341.767 66.9944H326.514ZM333.298 61.8539H341.261C343.031 61.8539 344.365 61.573 345.264 61.0112C346.191 60.4214 346.654 59.4944 346.654 58.2303C346.654 56.9944 346.191 56.0815 345.264 55.4916C344.365 54.8736 343.031 54.5646 341.261 54.5646H332.792V49.5927H340.081C341.739 49.5927 343.003 49.3118 343.873 48.75C344.772 48.1601 345.222 47.2753 345.222 46.0955C345.222 44.9438 344.772 44.0871 343.873 43.5253C343.003 42.9354 341.739 42.6405 340.081 42.6405H333.298V61.8539Z" fill="#333333"/>
<path d="M307.582 67.5C303.397 67.5 300.124 66.3343 297.765 64.0028C295.405 61.6714 294.226 58.3427 294.226 54.0169V37.5H301.051V53.7641C301.051 56.573 301.627 58.5955 302.779 59.8315C303.931 61.0674 305.546 61.6854 307.624 61.6854C309.703 61.6854 311.318 61.0674 312.47 59.8315C313.622 58.5955 314.197 56.573 314.197 53.7641V37.5H320.939V54.0169C320.939 58.3427 319.759 61.6714 317.4 64.0028C315.04 66.3343 311.768 67.5 307.582 67.5Z" fill="#333333"/>
<path d="M281.845 37.5H288.671V66.9944H281.845V37.5ZM268.446 66.9944H261.62V37.5H268.446V66.9944ZM282.35 54.9017H267.94V49.1292H282.35V54.9017Z" fill="#333333"/>
<path d="M240.544 66.9944V37.5H247.369V66.9944H240.544Z" fill="#0D8A21"/>
<path d="M210.73 66.9944V37.5H223.497C226.137 37.5 228.413 37.9354 230.323 38.8062C232.233 39.6489 233.708 40.8708 234.747 42.4719C235.786 44.073 236.306 45.9831 236.306 48.2022C236.306 50.3933 235.786 52.2893 234.747 53.8904C233.708 55.4635 232.233 56.6713 230.323 57.514C228.413 58.3567 226.137 58.7781 223.497 58.7781H214.522L217.556 55.7865V66.9944H210.73ZM229.48 66.9944L222.106 56.2921H229.396L236.854 66.9944H229.48ZM217.556 56.5449L214.522 53.3427H223.118C225.224 53.3427 226.797 52.8933 227.837 51.9944C228.876 51.0674 229.396 49.8034 229.396 48.2022C229.396 46.573 228.876 45.309 227.837 44.4101C226.797 43.5112 225.224 43.0618 223.118 43.0618H214.522L217.556 39.8174V56.5449Z" fill="#0D8A21"/>
<path d="M189.91 49.382H204.11V54.691H189.91V49.382ZM190.416 61.5169H206.469V66.9944H183.632V37.5H205.922V42.9775H190.416V61.5169Z" fill="#0D8A21"/>
<path d="M144.561 66.9944V37.5H150.207L162.763 58.3146H159.771L172.117 37.5H177.721L177.805 66.9944H171.4L171.358 47.3174H172.538L162.679 63.8764H159.603L149.532 47.3174H150.965V66.9944H144.561Z" fill="#0D8A21"/>
<path d="M109.595 66.9944L122.741 37.5H129.483L142.671 66.9944H135.508L124.721 40.955H127.418L116.589 66.9944H109.595ZM116.168 60.6742L117.98 55.4916H133.148L135.002 60.6742H116.168Z" fill="#0D8A21"/>
</svg>
