<svg width="281" height="200" viewBox="0 0 281 200" fill="none" xmlns="http://www.w3.org/2000/svg">
<path fill-rule="evenodd" clip-rule="evenodd" d="M189.959 52.1135L155.825 46.3561V48.7255C157.117 48.9326 158.534 49.3205 160.44 49.9375C162.978 50.7593 164.894 51.8535 167.321 54.1526L163.617 59.2618C161.19 57.6013 158.345 56.3686 156.521 55.7768C156.311 55.7088 156.077 55.6499 155.825 55.5995V67.1244L158.888 68.0751C163.617 69.7402 165.867 71.2729 167.832 74.9725C169.054 77.2716 169.109 82.3808 167.321 85.8295C165.533 88.1286 163.366 90.3372 158.888 91.5318C157.878 91.8013 156.853 92.0018 155.825 92.1361V96.3263C163.711 94.9818 172.781 93.2312 182.433 91.0013C186.165 90.1393 190.004 88.9279 192.323 85.88C192.635 85.4695 192.937 85.0389 193.228 84.591L175.246 83.2223L175.25 79.5521L195.175 81.047C195.946 79.4011 196.613 77.6505 197.179 75.8891L174.253 72.9953L172.65 69.1572L198.177 72.3921C198.842 69.7403 199.278 67.2091 199.497 65.1338L170.259 61.8209L172.725 59.0281L199.626 61.9248C198.813 54.5968 193.764 52.6571 189.959 52.1135ZM105.147 37.8079L151.483 45.6236V48.6377C150.537 48.7245 149.474 48.8642 148.196 49.0437C138.957 51.5088 135.772 58.6231 138.327 65.8219C139.534 69.2247 142.824 71.6414 148.196 72.8046L151.304 73.5675L151.483 73.616V85.1363C150.744 85.0488 150.118 84.9303 149.695 84.8122C144.524 83.7781 142.661 82.3306 141.223 81.2134C141.063 81.0887 140.907 80.9681 140.754 80.8526L136.155 85.574C138.454 88.9615 144.671 92.0052 151.483 92.3173V97.0459C141.727 98.6156 134.215 99.5063 130.309 99.8843C114.471 101.417 109.873 120.96 123.412 122.876C123.627 122.857 123.842 122.839 124.058 122.821C124.252 122.804 124.446 122.788 124.64 122.771C125.757 117.15 130.717 112.913 136.666 112.913C141.9 112.913 146.369 116.192 148.128 120.809C151.582 120.51 154.986 120.203 158.3 119.883C160.276 115.76 164.488 112.913 169.365 112.913C173.21 112.913 176.642 114.683 178.89 117.453C182.455 116.915 185.712 116.332 188.569 115.69C189.847 115.403 191.111 116.402 190.628 117.619C189.572 120.276 186.631 121.988 181.483 123.289C181.577 123.904 181.627 124.533 181.627 125.175C181.627 131.947 176.137 137.437 169.365 137.437C163.101 137.437 157.935 132.741 157.194 126.677C155.194 126.878 153.096 127.085 150.898 127.302H150.898L150.898 127.302L148.705 127.518C147.611 133.169 142.637 137.437 136.666 137.437C131.395 137.437 126.901 134.111 125.167 129.443C124.604 129.457 124.02 129.481 123.412 129.517C112.811 129.517 100.165 112.657 118.942 98.4793L115.753 89.295L127.265 89.5691L123.765 85.7063L114.413 85.4346L111.821 77.9696L130.379 79.2196L132.707 75.488L110.443 74.0004L107.649 65.952L129.258 68.0797L128.692 64.3399L106.329 62.1493L103.661 54.4649L128.927 57.0948L130.152 53.5185L102.337 50.6518L92.2461 21.5862C90.7134 17.2435 89.3595 14.1779 79.3455 11.1124C76.1948 10.3886 70.0213 7.15284 70.5322 0L89.1806 7.4083C91.3095 8.47271 96.0269 12.1598 97.8662 18.393L105.147 37.8079ZM151.483 55.4258C150.611 55.4921 149.802 55.6124 149.184 55.7768C144.841 56.9324 144.59 60.9223 145.735 63.0937C146.567 64.6711 149.012 65.2671 151.304 65.746L151.483 65.7876V55.4258ZM155.825 74.9111V85.1489C159.01 84.6276 161.938 81.1381 160.44 78.2934C159.711 76.9113 158.286 75.892 155.825 74.9111Z" fill="#333333"/>
<path fill-rule="evenodd" clip-rule="evenodd" d="M189.959 52.1136L155.825 46.3561V48.7256C157.117 48.9327 158.533 49.3206 160.44 49.9376C162.978 50.7593 164.894 51.8536 167.321 54.1527L163.617 59.2619C161.19 57.6014 158.345 56.3686 156.52 55.7769C156.311 55.7089 156.077 55.65 155.825 55.5996V67.1245L158.888 68.0752C163.617 69.7402 165.866 71.273 167.832 74.9725C169.053 77.2717 169.109 82.3809 167.321 85.8295C165.533 88.1287 163.366 90.3373 158.888 91.5319C157.878 91.8014 156.853 92.0018 155.825 92.1361V96.3264C164.839 94.7896 175.399 92.7221 186.609 90.0149C187.56 89.7852 188.502 89.4698 189.298 88.9015C190.794 87.8338 192.118 86.3115 193.276 84.5171L176.268 83.2225L176.271 79.5523L195.21 80.9731C195.984 79.31 196.652 77.542 197.219 75.7652L175.275 72.9954L173.672 69.1573L198.208 72.2666C198.867 69.6118 199.297 67.0834 199.509 65.0196L171.281 61.821L173.747 59.0282L199.613 61.8136C198.762 54.5772 193.744 52.6544 189.959 52.1136ZM155.825 74.9112V85.149C159.01 84.6275 161.938 81.1381 160.44 78.2935C159.711 76.9114 158.286 75.8921 155.825 74.9112Z" fill="#0D8A21"/>
<path d="M249.724 199.418V165.463H266.314C270.582 165.463 273.784 166.271 275.918 167.888C278.085 169.505 279.168 171.64 279.168 174.291C279.168 176.07 278.732 177.622 277.858 178.948C276.985 180.241 275.789 181.244 274.269 181.955C272.749 182.667 271.003 183.023 269.03 183.023L269.952 181.034C272.086 181.034 273.978 181.389 275.627 182.101C277.276 182.78 278.554 183.799 279.459 185.157C280.397 186.515 280.866 188.18 280.866 190.153C280.866 193.063 279.718 195.343 277.422 196.993C275.126 198.609 271.747 199.418 267.284 199.418H249.724ZM257.534 193.5H266.702C268.739 193.5 270.275 193.177 271.31 192.53C272.377 191.851 272.911 190.784 272.911 189.328C272.911 187.906 272.377 186.855 271.31 186.175C270.275 185.464 268.739 185.108 266.702 185.108H256.952V179.384H265.344C267.252 179.384 268.707 179.061 269.709 178.414C270.744 177.735 271.261 176.717 271.261 175.358C271.261 174.033 270.744 173.046 269.709 172.399C268.707 171.72 267.252 171.381 265.344 171.381H257.534V193.5Z" fill="#333333"/>
<path d="M227.93 200C223.111 200 219.344 198.658 216.628 195.974C213.911 193.29 212.553 189.458 212.553 184.478V165.463H220.411V184.187C220.411 187.42 221.074 189.749 222.4 191.172C223.726 192.595 225.585 193.306 227.978 193.306C230.371 193.306 232.231 192.595 233.557 191.172C234.882 189.749 235.545 187.42 235.545 184.187V165.463H243.306V184.478C243.306 189.458 241.948 193.29 239.232 195.974C236.515 198.658 232.748 200 227.93 200Z" fill="#333333"/>
<path d="M198.3 165.463H206.158V199.418H198.3V165.463ZM182.875 199.418H175.016V165.463H182.875V199.418ZM198.882 185.496H182.292V178.851H198.882V185.496Z" fill="#333333"/>
<path d="M150.752 199.418V165.463H158.61V199.418H150.752Z" fill="#0D8A21"/>
<path d="M116.43 199.418V165.463H131.128C134.167 165.463 136.787 165.964 138.986 166.967C141.185 167.937 142.882 169.344 144.079 171.187C145.275 173.03 145.874 175.229 145.874 177.784C145.874 180.306 145.275 182.489 144.079 184.332C142.882 186.143 141.185 187.534 138.986 188.504C136.787 189.474 134.167 189.959 131.128 189.959H120.796L124.288 186.515V199.418H116.43ZM138.016 199.418L129.527 187.097H137.919L146.504 199.418H138.016ZM124.288 187.388L120.796 183.702H130.691C133.116 183.702 134.927 183.184 136.124 182.149C137.32 181.082 137.919 179.627 137.919 177.784C137.919 175.908 137.32 174.453 136.124 173.418C134.927 172.383 133.116 171.866 130.691 171.866H120.796L124.288 168.131V187.388Z" fill="#0D8A21"/>
<path d="M92.4617 179.142H108.809V185.254H92.4617V179.142ZM93.0438 193.112H111.525V199.418H85.2341V165.463H110.894V171.769H93.0438V193.112Z" fill="#0D8A21"/>
<path d="M40.2534 199.418V165.463H46.7534L61.2085 189.425H57.7645L71.977 165.463H78.4285L78.5255 199.418H71.1524L71.1039 176.765H72.4621L61.1115 195.828H57.5704L45.9773 176.765H47.6265V199.418H40.2534Z" fill="#0D8A21"/>
<path d="M0 199.418L15.1342 165.463H22.8953L38.078 199.418H29.8318L17.414 169.441H20.5185L8.05217 199.418H0ZM7.5671 192.142L9.65291 186.175H27.1154L29.2498 192.142H7.5671Z" fill="#0D8A21"/>
</svg>
