<svg width="94" height="100" viewBox="0 0 94 100" fill="none" xmlns="http://www.w3.org/2000/svg">
<path fill-rule="evenodd" clip-rule="evenodd" d="M86.9176 37.9182L62.082 33.7291V35.4531C63.0218 35.6038 64.0523 35.886 65.4392 36.335C67.2863 36.9329 68.6804 37.729 70.4462 39.4019L67.751 43.1194C65.9852 41.9112 63.915 41.0142 62.5875 40.5837C62.4351 40.5342 62.2652 40.4913 62.082 40.4547V48.8403L64.3102 49.532C67.751 50.7435 69.3879 51.8588 70.8179 54.5506C71.7066 56.2234 71.7473 59.9409 70.4462 62.4502C69.145 64.1231 67.5685 65.7301 64.3102 66.5993C63.5755 66.7953 62.8298 66.9412 62.082 67.0389V70.0877C67.4013 69.1808 73.4606 68.0199 79.9122 66.5627C83.5079 65.7505 87.2229 64.5446 89.2895 61.5486L76.2125 60.5532L76.2151 57.8827L90.7131 58.9704C91.2738 57.7728 91.7589 56.4991 92.1711 55.2175L75.4899 53.112L74.3233 50.3194L92.8968 52.6731C93.3806 50.7437 93.6978 48.9019 93.8577 47.3919L72.5836 44.9814L74.3783 42.9493L93.9515 45.057C93.3599 39.725 89.6861 38.3137 86.9176 37.9182ZM25.2076 27.5093L58.9221 33.1961V35.3892C58.2339 35.4524 57.4605 35.554 56.5305 35.6846C49.8079 37.4782 47.4908 42.6547 49.3495 47.8925C50.2281 50.3684 52.6218 52.1269 56.5305 52.9732L58.7922 53.5283L58.9221 53.5636V61.9459C58.3848 61.8822 57.929 61.796 57.6209 61.7101C53.8588 60.9576 52.5033 59.9044 51.4571 59.0916C51.3403 59.0008 51.2273 58.913 51.1153 58.829L47.7696 62.2643C49.4421 64.7291 53.9655 66.9438 58.9221 67.1709V70.6113C51.824 71.7534 46.3578 72.4016 43.5161 72.6766C31.992 73.7918 28.6463 88.0111 38.4976 89.4052L39.3907 89.3292C40.2036 85.2391 43.8124 82.1561 48.1413 82.1561C51.9498 82.1561 55.201 84.5424 56.4811 87.9015C58.9942 87.6837 61.4709 87.4605 63.8825 87.2277C65.3198 84.2278 68.3845 82.1561 71.9331 82.1561C74.7311 82.1561 77.2282 83.4441 78.864 85.4595C81.1764 85.1107 83.3102 84.7357 85.219 84.3276C86.4994 84.0539 87.7699 85.0901 87.091 86.2097C86.1321 87.7913 84.073 88.8666 80.7502 89.7059C80.8192 90.1532 80.855 90.6114 80.855 91.078C80.855 96.0055 76.8605 100 71.9331 100C67.3758 100 63.6166 96.5831 63.0775 92.1714C61.6223 92.3176 60.0959 92.468 58.4965 92.6257L56.9005 92.7831C56.1048 96.895 52.4856 100 48.1413 100C44.3059 100 41.0358 97.5799 39.7747 94.1835C39.365 94.1941 38.9402 94.2113 38.4976 94.2379C30.7838 94.2379 21.5831 81.9703 35.2448 71.6543L32.9248 64.9718L41.3006 65.1712L38.7545 62.3606L31.9496 62.1629L30.0639 56.7314L43.5669 57.6408L45.2601 54.9257L29.0612 53.8433L27.0281 47.9873L42.7508 49.5353L42.3395 46.8143L26.0676 45.2204L24.1264 39.6291L42.51 41.5426L43.4015 38.9405L23.1632 36.8547L15.821 15.7063C14.7057 12.5465 13.7206 10.316 6.43436 8.0855C4.14192 7.55886 -0.350025 5.20446 0.021722 0L13.5905 5.39033C15.1394 6.16481 18.5719 8.84758 19.9102 13.3829L25.2076 27.5093ZM58.9221 40.3282C58.2875 40.3765 57.6988 40.464 57.2491 40.5837C54.0893 41.4245 53.9068 44.3275 54.7398 45.9075C55.345 47.0552 57.1243 47.4889 58.7922 47.8374L58.9221 47.8677V40.3282ZM62.082 54.506V61.955C64.3993 61.5755 66.5295 59.0367 65.4392 56.9669C64.909 55.9613 63.8721 55.2197 62.082 54.506Z" fill="#333333"/>
<path fill-rule="evenodd" clip-rule="evenodd" d="M86.9176 37.9183L62.0818 33.7291V35.4531C63.0217 35.6039 64.0522 35.8861 65.4391 36.335C67.2862 36.9329 68.6803 37.7291 70.4461 39.4019L67.7509 43.1194C65.9851 41.9112 63.915 41.0143 62.5875 40.5837C62.435 40.5342 62.2651 40.4914 62.0818 40.4547V48.8403L64.3102 49.532C67.7509 50.7436 69.3878 51.8588 70.8178 54.5506C71.7066 56.2235 71.7472 59.941 70.4461 62.4503C69.145 64.1231 67.5684 65.7301 64.3102 66.5993C63.5754 66.7954 62.8297 66.9413 62.0818 67.039V70.0878C68.6404 68.9697 76.3238 67.4653 84.4805 65.4955C85.1724 65.3284 85.8574 65.0989 86.4368 64.6855C87.5256 63.9085 88.4886 62.8009 89.331 61.4953L76.956 60.5533L76.9586 57.8829L90.7382 58.9167C91.3014 57.7066 91.7878 56.4201 92.2001 55.1273L76.2334 53.112L75.0668 50.3194L92.9196 52.5818C93.3994 50.6501 93.7119 48.8104 93.8664 47.3088L73.3271 44.9815L75.1218 42.9494L93.9423 44.976C93.3226 39.7108 89.6721 38.3118 86.9176 37.9183ZM62.0818 54.506V61.9551C64.3992 61.5757 66.5295 59.0368 65.4391 56.967C64.9089 55.9614 63.872 55.2197 62.0818 54.506Z" fill="#0D8A21"/>
</svg>
